# xmcd CD database file
#
# Track frame offsets:
#	150
#	8922
#	19185
#	28925
#	40110
#	50322
#	59547
#	68415
#	79527
#	88925
#	99045
#	108525
#	120592
#	131287
#	140947
#	151637
#	162242
#	173642
#	183135
#	192245
#	202472
#	213362
#	231905
#	252500
#	265167
#	276937
#	289855
#	303602
#	318690
#	330645
#
# Disc length: 4566 seconds
#
# Revision: 4
# Processed by: cddbd v1.5.1PL0 Copyright (c) Steve Scherf et al.
# Submitted via: CDex 1.51
#
DISCID=b011d41e
DTITLE=Elvis Preslay - Elvis-Rock'n Roll
DYEAR=1900
DGENRE=Rock and Roll
TTITLE0=THAT'S ALL RIGHT
TTITLE1=BABY LET'S PLAY HOUSE
TTITLE2=HEARTBREAK HOTEL
TTITLE3=SHAKE,RATTLE AND ROLL
TTITLE4=HOUND DOG
TTITLE5=DON'T BE CRUEL
TTITLE6=ALL SHOOK UP
TTITLE7=JAILHOUSE ROCK
TTITLE8=I NEED YOUR LOVE TONIGHT
TTITLE9=WEAR MY RING AROUND YOUR NECK
TTITLE10=BRUE SUEDE SHOES
TTITLE11=A MESS OF BLUES
TTITLE12=I'M COMING HOME
TTITLE13=HIS LATEST FAME
TTITLE14=LONG LONELY HIGHWAY
TTITLE15=VIVA LAS VEGAS
TTITLE16=YOU'RE THE BOSS
TTITLE17=FOOLS FALL IN LOVE
TTITLE18=JOHNNY B.GOODE
TTITLE19=GUITAR MAN
TTITLE20=THE FOOL
TTITLE21=FADED LOVE
TTITLE22=GOT MY MOJO WORKING
TTITLE23=BURNING LOVE
TTITLE24=PROUD MARY
TTITLE25=PROMISED LAND
TTITLE26=T-R-O-U-B-L-E
TTITLE27=FOR THE HEART
TTITLE28=WAY DOWN
TTITLE29=RAISED ON ROCK
EXTD=
EXTT0=
EXTT1=
EXTT2=
EXTT3=
EXTT4=
EXTT5=
EXTT6=
EXTT7=
EXTT8=
EXTT9=
EXTT10=
EXTT11=
EXTT12=
EXTT13=
EXTT14=
EXTT15=
EXTT16=
EXTT17=
EXTT18=
EXTT19=
EXTT20=
EXTT21=
EXTT22=
EXTT23=
EXTT24=
EXTT25=
EXTT26=
EXTT27=
EXTT28=
EXTT29=
PLAYORDER=
